PathFileType	4	(X/Y/Z)	joints.trc
DataRate	CameraRate	NumFrames	NumMarkers	Units	OrigDataRate	OrigDataStartFrame	OrigNumFrames
30.0	30.0	14	24	m	30.0	21	120
Frame#	Time	pelvis			femur_r			tibia_r			talus_r			calcn_r			toes_r			femur_l			tibia_l			talus_l			calcn_l			toes_l			lumbar_body			thorax			head			scapula_r			humerus_r			ulna_r			radius_r			hand_r			scapula_l			humerus_l			ulna_l			radius_l			hand_l		
		X1	Y1	Z1	X2	Y2	Z2	X3	Y3	Z3	X4	Y4	Z4	X5	Y5	Z5	X6	Y6	Z6	X7	Y7	Z7	X8	Y8	Z8	X9	Y9	Z9	X10	Y10	Z10	X11	Y11	Z11	X12	Y12	Z12	X13	Y13	Z13	X14	Y14	Z14	X15	Y15	Z15	X16	Y16	Z16	X17	Y17	Z17	X18	Y18	Z18	X19	Y19	Z19	X20	Y20	Z20	X21	Y21	Z21	X22	Y22	Z22	X23	Y23	Z23	X24	Y24	Z24
21	0.666667	-0.012946	1.003903	-0.071242	-0.008025	1.157964	0.015485	-0.153645	0.678349	0.070526	-0.183567	0.230558	0.017911	-0.126833	0.134109	-0.069286	-0.223504	0.140237	0.112573	0.073398	1.141263	0.041329	0.168100	0.671144	0.044422	0.205581	0.285348	0.032853	0.187602	0.118713	0.019359	0.222609	0.197963	0.105938	-0.034127	1.283843	0.101954	0.031103	1.702288	0.096019	-0.014010	1.882661	0.109228	-0.202607	1.941667	0.083172	-0.196521	1.628797	0.103111	-0.262608	1.363640	-0.030483	-0.243438	1.425109	-0.051218	-0.501722	1.187573	-0.001204	0.216386	2.040207	0.076244	0.175297	1.574761	0.079003	0.256545	1.378794	-0.011102	0.265668	1.385956	0.000377	0.514481	1.195142	0.011740
22	0.700000	-0.013553	1.071970	-0.088963	-0.004069	1.236418	0.010053	-0.147008	0.752522	0.071159	-0.175475	0.316825	0.009529	-0.120929	0.216679	-0.076284	-0.214490	0.221023	0.097553	0.072148	1.218437	0.037113	0.158643	0.743703	0.045299	0.194742	0.362286	0.014674	0.175405	0.191395	0.004421	0.212647	0.278216	0.083569	-0.034533	1.356629	0.093661	0.032472	1.779292	0.089328	-0.014208	1.962602	0.098191	-0.204364	2.035546	0.076134	-0.196070	1.705380	0.096085	-0.261394	1.438073	-0.039994	-0.240223	1.503142	-0.063715	-0.511123	1.271030	-0.000931	0.218868	2.144005	0.067737	0.177472	1.657448	0.070832	0.263410	1.455359	-0.022068	0.272907	1.469977	-0.011602	0.535890	1.282984	0.002690
23	0.733333	-0.013651	1.106790	-0.099892	-0.002563	1.275959	0.006492	-0.141423	0.790332	0.068881	-0.168339	0.361709	-0.000102	-0.117371	0.259340	-0.084004	-0.205566	0.261486	0.084660	0.072120	1.257305	0.035075	0.156345	0.781692	0.048801	0.192540	0.404553	0.003954	0.172214	0.231421	-0.004601	0.210762	0.321436	0.069938	-0.033851	1.393232	0.083299	0.032804	1.817577	0.079478	-0.014658	2.002201	0.084943	-0.205074	2.084591	0.066479	-0.195137	1.743777	0.085849	-0.261138	1.476371	-0.048697	-0.238836	1.543022	-0.076223	-0.519937	1.322007	0.005933	0.218669	2.200549	0.056882	0.178235	1.702074	0.060106	0.268996	1.496679	-0.036060	0.278831	1.516453	-0.026482	0.551990	1.334570	-0.000821
24	0.766667	-0.013393	1.120247	-0.104602	-0.001622	1.290452	0.004009	-0.140148	0.804808	0.065619	-0.166521	0.377903	-0.009530	-0.118132	0.275400	-0.093711	-0.203304	0.275602	0.074256	0.073077	1.271487	0.034911	0.157936	0.795103	0.050867	0.193985	0.417115	0.000228	0.173821	0.243353	-0.007818	0.211078	0.334058	0.068944	-0.032556	1.407126	0.075579	0.032704	1.831845	0.069063	-0.015648	2.016603	0.070753	-0.205144	2.105993	0.055164	-0.194182	1.758583	0.073658	-0.261730	1.491260	-0.059262	-0.238817	1.557938	-0.091746	-0.529451	1.354881	0.016926	0.217961	2.226409	0.046304	0.178928	1.721674	0.049705	0.274934	1.514315	-0.049481	0.285199	1.537204	-0.040953	0.567480	1.361493	0.000433
25	0.800000	-0.012608	1.102605	-0.101696	-0.001881	1.268338	0.003284	-0.143202	0.781917	0.057148	-0.169503	0.350381	-0.021182	-0.123900	0.250573	-0.106441	-0.206009	0.251943	0.069009	0.074652	1.249705	0.035845	0.167191	0.774114	0.052954	0.204121	0.391368	-0.003764	0.184520	0.218674	-0.012619	0.219986	0.305619	0.071618	-0.030977	1.386903	0.071686	0.031733	1.810081	0.059667	-0.017277	1.992602	0.057994	-0.203619	2.084402	0.043994	-0.192589	1.737617	0.061293	-0.262281	1.471965	-0.071003	-0.239516	1.536672	-0.108064	-0.536389	1.357845	0.025789	0.215654	2.204991	0.037586	0.178640	1.703478	0.040919	0.279398	1.497046	-0.059925	0.290159	1.520257	-0.052281	0.578599	1.351152	0.004141
26	0.833333	-0.011260	1.048866	-0.092533	-0.004087	1.203759	0.003946	-0.147876	0.720061	0.049997	-0.174762	0.281265	-0.031899	-0.131987	0.186701	-0.119840	-0.211981	0.186949	0.061794	0.076440	1.186072	0.037280	0.177686	0.713567	0.057883	0.215649	0.329450	-0.002669	0.197432	0.161425	-0.013504	0.229347	0.241087	0.081064	-0.028379	1.327586	0.066677	0.029169	1.746369	0.047709	-0.019522	1.925721	0.042136	-0.201773	2.013152	0.031694	-0.191620	1.674952	0.047384	-0.266493	1.412046	-0.079785	-0.244804	1.472024	-0.121439	-0.543900	1.329863	0.040234	0.210542	2.130235	0.027495	0.176850	1.642513	0.030427	0.284393	1.440457	-0.071952	0.295633	1.462065	-0.064961	0.586679	1.304573	0.016907
27	0.866667	-0.009262	0.970085	-0.080720	-0.008595	1.109308	0.004621	-0.151618	0.630651	0.049827	-0.178476	0.192687	-0.046709	-0.141194	0.107010	-0.139505	-0.216989	0.101496	0.041983	0.079145	1.092559	0.038634	0.188636	0.623023	0.072605	0.227494	0.243281	-0.008507	0.210236	0.079442	-0.021630	0.236598	0.152524	0.075079	-0.023894	1.240828	0.056115	0.026773	1.652935	0.037122	-0.021588	1.828714	0.029165	-0.199361	1.905430	0.020796	-0.190551	1.581725	0.034315	-0.273291	1.320680	-0.084872	-0.253514	1.374061	-0.129793	-0.549124	1.270172	0.054063	0.206506	2.016007	0.018684	0.176719	1.547442	0.021328	0.290031	1.351205	-0.077889	0.301427	1.368344	-0.071651	0.587719	1.226950	0.041354
28	0.900000	-0.006310	0.876337	-0.074739	-0.014986	0.995049	0.000364	-0.149383	0.528743	0.043603	-0.176698	0.108541	-0.085442	-0.150471	0.035707	-0.186268	-0.217765	0.031787	0.006935	0.083933	0.979197	0.037408	0.194149	0.521691	0.097454	0.234364	0.154518	-0.048498	0.218292	0.006450	-0.062078	0.243974	0.063862	0.048839	-0.017637	1.135193	0.038654	0.023914	1.538058	0.029128	-0.022499	1.709986	0.022432	-0.198171	1.768913	0.012062	-0.191362	1.465146	0.022814	-0.284398	1.204310	-0.083387	-0.267332	1.250202	-0.129027	-0.545590	1.175993	0.064985	0.201595	1.872130	0.012115	0.175773	1.427648	0.014491	0.295478	1.238982	-0.071205	0.306395	1.248622	-0.066638	0.578039	1.117976	0.068167
29	0.933333	-0.001809	0.772023	-0.080195	-0.022298	0.864558	-0.011686	-0.136926	0.416497	0.049842	-0.164657	0.056459	-0.119066	-0.148792	-0.001494	-0.228353	-0.208939	0.016090	0.005622	0.087014	0.848951	0.029329	0.184197	0.405569	0.126195	0.223179	0.073846	-0.107118	0.211390	-0.013909	-0.118281	0.238291	-0.002735	0.033214	-0.007217	1.013378	0.012487	0.021840	1.402640	0.033847	-0.023701	1.572204	0.032556	-0.194796	1.602771	0.011895	-0.190914	1.326560	0.021358	-0.287560	1.071201	-0.067608	-0.273533	1.110014	-0.111863	-0.519476	1.047626	0.083985	0.198679	1.692598	0.019398	0.175033	1.281150	0.021825	0.298411	1.103458	-0.040248	0.308166	1.102538	-0.037574	0.553291	0.978376	0.108331
30	0.966667	0.002701	0.730972	-0.105318	-0.024973	0.804865	-0.033601	-0.132615	0.374230	0.069113	-0.159670	0.042013	-0.115245	-0.145470	-0.010064	-0.228493	-0.205598	0.012113	0.005567	0.087960	0.788678	0.011766	0.170560	0.361182	0.160891	0.210060	0.055845	-0.114037	0.198823	-0.016053	-0.124700	0.230941	-0.015217	0.030484	0.002920	0.957671	-0.021411	0.023587	1.339743	0.037981	-0.020836	1.509694	0.041113	-0.191278	1.522281	0.014837	-0.187691	1.256256	0.020825	-0.275445	0.992713	-0.057975	-0.263776	1.028595	-0.096600	-0.494909	0.924768	0.071379	0.201254	1.607357	0.019806	0.178338	1.201573	0.023125	0.285915	1.026112	-0.009494	0.294808	1.012266	-0.008798	0.515990	0.863948	0.119349
31	1.000000	0.005650	0.731586	-0.123534	-0.022844	0.797458	-0.050479	-0.130565	0.369814	0.065289	-0.157428	0.040143	-0.114769	-0.143322	-0.012184	-0.226937	-0.202963	0.010454	0.005024	0.090345	0.780317	-0.002373	0.165699	0.357031	0.160744	0.204948	0.051921	-0.111972	0.193831	-0.017237	-0.122688	0.228367	-0.018046	0.033713	0.009646	0.953659	-0.039468	0.026725	1.329009	0.044314	-0.017715	1.499026	0.051138	-0.187807	1.505500	0.019732	-0.183076	1.240236	0.024142	-0.250692	0.970268	-0.061976	-0.240308	1.008412	-0.091111	-0.468295	0.826629	0.020321	0.205926	1.590462	0.023529	0.182472	1.181152	0.027643	0.267240	1.005524	0.008658	0.274885	0.983472	0.009722	0.470426	0.801602	0.097047
32	1.033333	0.007659	0.755244	-0.134992	-0.017288	0.819481	-0.062977	-0.127605	0.384369	0.043879	-0.154297	0.044797	-0.121016	-0.140958	-0.011197	-0.228371	-0.197545	0.011088	0.002096	0.093595	0.801071	-0.013554	0.165157	0.371039	0.136711	0.203160	0.052480	-0.113317	0.192347	-0.017079	-0.123840	0.224998	-0.016937	0.033534	0.013637	0.977612	-0.041456	0.029484	1.349610	0.053234	-0.016028	1.520919	0.063713	-0.185544	1.526650	0.026025	-0.179698	1.257883	0.030446	-0.223006	0.989191	-0.081032	-0.212050	1.031464	-0.097676	-0.429015	0.796350	-0.065580	0.211014	1.613778	0.031279	0.186045	1.199318	0.035113	0.251772	1.023291	0.007865	0.258578	1.000625	0.012632	0.438366	0.801995	0.049577
33	1.066667	0.008988	0.788646	-0.140716	-0.010499	0.854950	-0.071395	-0.125209	0.408024	0.015767	-0.151385	0.052542	-0.127705	-0.138390	-0.008836	-0.227958	-0.191387	0.013180	0.001396	0.097188	0.835320	-0.021505	0.165098	0.392677	0.098865	0.200467	0.054160	-0.115718	0.190325	-0.015710	-0.125852	0.218658	-0.013943	0.033270	0.015839	1.013577	-0.033385	0.032214	1.384550	0.065006	-0.014106	1.557082	0.080590	-0.183783	1.566377	0.032730	-0.176887	1.293288	0.038538	-0.203907	1.032465	-0.110702	-0.190872	1.078580	-0.118078	-0.382959	0.836626	-0.150295	0.216590	1.655766	0.042261	0.189333	1.238396	0.044861	0.245830	1.062251	-0.009935	0.252485	1.044425	0.000999	0.430451	0.841241	-0.007050
34	1.100000	0.010067	0.818856	-0.143004	-0.004013	0.887727	-0.077334	-0.122614	0.429393	-0.014552	-0.148567	0.059762	-0.133845	-0.135238	-0.006757	-0.226247	-0.185386	0.014871	0.001276	0.100847	0.867160	-0.027328	0.164771	0.412429	0.058890	0.196718	0.053962	-0.115665	0.187175	-0.014703	-0.125548	0.212579	-0.012654	0.035376	0.017641	1.046442	-0.023634	0.035135	1.415439	0.076216	-0.011155	1.588907	0.096978	-0.180837	1.603856	0.037840	-0.172734	1.327912	0.045764	-0.192825	1.081301	-0.140768	-0.177742	1.131549	-0.143746	-0.357783	0.896789	-0.212086	0.221941	1.694305	0.052706	0.192632	1.278266	0.054178	0.247121	1.104057	-0.029708	0.253886	1.093967	-0.013231	0.436013	0.891778	-0.059848
